{"title":"Screw My Wife Please - Sunny 3D(Anaglyph) DVDRip","uid":6267975,"size":367081472,"categoryP":"porn","categoryS":"movie_clips","magnet":"?xt=urn:btih:c9cde8b5457696940aadc107e4cee6fd3e4d0c26&amp;dn=Screw+My+Wife+Please+-+Sunny+3D%28Anaglyph%29+DVDRip&amp;tr=udp%3A%2F%2Ftracker.openbittorrent.com%3A80&amp;tr=udp%3A%2F%2Fopen.demonii.com%3A1337&amp;tr=udp%3A%2F%2Ftracker.coppersurfer.tk%3A6969&amp;tr=udp%3A%2F%2Fexodus.desync.com%3A6969","seeders":3,"leechers":0,"uploader":null,"files":1,"time":1300966380,"description":"SCREENSHOTS:\n &lt;a href=&quot;\nhttp://lnk.co/GX1XY&quot; rel=&quot;nofollow&quot; target=&quot;_NEW&quot;&gt;\nhttp://lnk.co/GX1XY&lt;/a&gt;\n\nVideo\nID                               : 0\nFormat                           : MPEG-4 Visual\nFormat profile                   : Advanced Simple@L5\nFormat settings, BVOP            : 1\nFormat settings, QPel            : No\nFormat settings, GMC             : No warppoints\nFormat settings, Matrix          : Custom\nCodec ID                         : XVID\nCodec ID/Hint                    : XviD\nDuration                         : 13mn 46s\nBit rate                         : 3 352 Kbps\nWidth                            : 720 pixels\nHeight                           : 416 pixels\nDisplay aspect ratio             : 16:9\nFrame rate                       : 29.970 fps\nColor space                      : YUV\nChroma subsampling               : 4:2:0\nBit depth                        : 8 bits\nScan type                        : Progressive\nCompression mode                 : Lossy\nBits/(Pixel*Frame)               : 0.373\nStream size                      : 330 MiB (94%)\n\nAudio\nID                               : 1\nFormat                           : AC-3\nFormat/Info                      : Audio Coding 3\nMode extension                   : CM (complete main)\nCodec ID                         : 2000\nDuration                         : 13mn 46s\nBit rate mode                    : Constant\nBit rate                         : 192 Kbps\nChannel(s)                       : 2 channels\nChannel positions                : Front: L R\nSampling rate                    : 48.0 KHz\nBit depth                        : 16 bits\nCompression mode                 : Lossy\nStream size                      : 18.9 MiB (5%)\nLanguage                         : English","torrent":{"xt":"urn:btih:c9cde8b5457696940aadc107e4cee6fd3e4d0c26","amp;dn":"Screw+My+Wife+Please+-+Sunny+3D%28Anaglyph%29+DVDRip","amp;tr":["udp%3A%2F%2Ftracker.openbittorrent.com%3A80","udp%3A%2F%2Fopen.demonii.com%3A1337","udp%3A%2F%2Ftracker.coppersurfer.tk%3A6969","udp%3A%2F%2Fexodus.desync.com%3A6969"],"infoHash":"c9cde8b5457696940aadc107e4cee6fd3e4d0c26","infoHashBuffer":{"type":"Buffer","data":[201,205,232,181,69,118,150,148,10,173,193,7,228,206,230,253,62,77,12,38]},"announce":[],"urlList":[]}}